<svg xmlns="http://www.w3.org/2000/svg" version="1.1" xmlns:xlink="http://www.w3.org/1999/xlink" xmlns:svgjs="http://svgjs.dev/svgjs" width="1440" height="560" preserveAspectRatio="none" viewBox="0 0 1440 560"><g mask="url(&quot;#SvgjsMask4086&quot;)" fill="none"><rect width="1440" height="560" x="0" y="0" fill="url(&quot;#SvgjsLinearGradient4087&quot;)"></rect><path d="M-108.32 402.75L-108.32 402.75" stroke="#132e65" stroke-width="1.5"></path><path d="M-108.32 402.75L-81.88 500.61" stroke="#132e65" stroke-width="1.5"></path><path d="M-108.32 402.75L40.01 535.59" stroke="#132e65" stroke-width="1.5"></path><path d="M-108.32 402.75L102.28 388.52" stroke="#132e65" stroke-width="1.5"></path><path d="M-108.32 402.75L-95.91 684.73" stroke="#132e65" stroke-width="1.5"></path><path d="M-108.32 402.75L243.61 394.07" stroke="#132e65" stroke-width="1.5"></path><path d="M-81.88 500.61L-81.88 500.61" stroke="#132e65" stroke-width="1.5"></path><path d="M-81.88 500.61L40.01 535.59" stroke="#132e65" stroke-width="1.5"></path><path d="M-81.88 500.61L-95.91 684.73" stroke="#132e65" stroke-width="1.5"></path><path d="M-81.88 500.61L102.28 388.52" stroke="#132e65" stroke-width="1.5"></path><path d="M-81.88 500.61L102.12 699.49" stroke="#132e65" stroke-width="1.5"></path><path d="M-95.91 684.73L-95.91 684.73" stroke="#132e65" stroke-width="1.5"></path><path d="M-95.91 684.73L102.12 699.49" stroke="#132e65" stroke-width="1.5"></path><path d="M102.28 388.52L102.28 388.52" stroke="#132e65" stroke-width="1.5"></path><path d="M102.28 388.52L243.61 394.07" stroke="#132e65" stroke-width="1.5"></path><path d="M102.28 388.52L40.01 535.59" stroke="#132e65" stroke-width="1.5"></path><path d="M40.01 535.59L40.01 535.59" stroke="#132e65" stroke-width="1.5"></path><path d="M40.01 535.59L102.12 699.49" stroke="#132e65" stroke-width="1.5"></path><path d="M40.01 535.59L-95.91 684.73" stroke="#132e65" stroke-width="1.5"></path><path d="M102.12 699.49L102.12 699.49" stroke="#132e65" stroke-width="1.5"></path><path d="M102.12 699.49L205.06 652.45" stroke="#132e65" stroke-width="1.5"></path><path d="M102.12 699.49L241.48 514.13" stroke="#132e65" stroke-width="1.5"></path><path d="M102.12 699.49L376.36 638.48" stroke="#132e65" stroke-width="1.5"></path><path d="M243.61 394.07L243.61 394.07" stroke="#132e65" stroke-width="1.5"></path><path d="M243.61 394.07L241.48 514.13" stroke="#132e65" stroke-width="1.5"></path><path d="M243.61 394.07L382.52 380.65" stroke="#132e65" stroke-width="1.5"></path><path d="M241.48 514.13L241.48 514.13" stroke="#132e65" stroke-width="1.5"></path><path d="M241.48 514.13L367.75 502.23" stroke="#132e65" stroke-width="1.5"></path><path d="M241.48 514.13L205.06 652.45" stroke="#132e65" stroke-width="1.5"></path><path d="M205.06 652.45L205.06 652.45" stroke="#132e65" stroke-width="1.5"></path><path d="M205.06 652.45L376.36 638.48" stroke="#132e65" stroke-width="1.5"></path><path d="M205.06 652.45L40.01 535.59" stroke="#132e65" stroke-width="1.5"></path><path d="M205.06 652.45L367.75 502.23" stroke="#132e65" stroke-width="1.5"></path><path d="M382.52 380.65L382.52 380.65" stroke="#132e65" stroke-width="1.5"></path><path d="M382.52 380.65L367.75 502.23" stroke="#132e65" stroke-width="1.5"></path><path d="M382.52 380.65L555.71 391.22" stroke="#132e65" stroke-width="1.5"></path><path d="M382.52 380.65L241.48 514.13" stroke="#132e65" stroke-width="1.5"></path><path d="M367.75 502.23L367.75 502.23" stroke="#132e65" stroke-width="1.5"></path><path d="M367.75 502.23L376.36 638.48" stroke="#132e65" stroke-width="1.5"></path><path d="M367.75 502.23L243.61 394.07" stroke="#132e65" stroke-width="1.5"></path><path d="M367.75 502.23L540.05 527.51" stroke="#132e65" stroke-width="1.5"></path><path d="M367.75 502.23L555.71 391.22" stroke="#132e65" stroke-width="1.5"></path><path d="M376.36 638.48L376.36 638.48" stroke="#132e65" stroke-width="1.5"></path><path d="M376.36 638.48L514.75 682.65" stroke="#132e65" stroke-width="1.5"></path><path d="M376.36 638.48L241.48 514.13" stroke="#132e65" stroke-width="1.5"></path><path d="M555.71 391.22L555.71 391.22" stroke="#132e65" stroke-width="1.5"></path><path d="M555.71 391.22L664.73 357.04" stroke="#132e65" stroke-width="1.5"></path><path d="M555.71 391.22L540.05 527.51" stroke="#132e65" stroke-width="1.5"></path><path d="M555.71 391.22L652.76 242.54" stroke="#132e65" stroke-width="1.5"></path><path d="M555.71 391.22L705.67 538.95" stroke="#132e65" stroke-width="1.5"></path><path d="M540.05 527.51L540.05 527.51" stroke="#132e65" stroke-width="1.5"></path><path d="M540.05 527.51L514.75 682.65" stroke="#132e65" stroke-width="1.5"></path><path d="M540.05 527.51L705.67 538.95" stroke="#132e65" stroke-width="1.5"></path><path d="M540.05 527.51L644.25 687.05" stroke="#132e65" stroke-width="1.5"></path><path d="M540.05 527.51L376.36 638.48" stroke="#132e65" stroke-width="1.5"></path><path d="M514.75 682.65L514.75 682.65" stroke="#132e65" stroke-width="1.5"></path><path d="M514.75 682.65L644.25 687.05" stroke="#132e65" stroke-width="1.5"></path><path d="M652.76 242.54L652.76 242.54" stroke="#132e65" stroke-width="1.5"></path><path d="M652.76 242.54L664.73 357.04" stroke="#132e65" stroke-width="1.5"></path><path d="M652.76 242.54L811.66 224.45" stroke="#132e65" stroke-width="1.5"></path><path d="M652.76 242.54L820.21 385.72" stroke="#132e65" stroke-width="1.5"></path><path d="M664.73 357.04L664.73 357.04" stroke="#132e65" stroke-width="1.5"></path><path d="M664.73 357.04L820.21 385.72" stroke="#132e65" stroke-width="1.5"></path><path d="M705.67 538.95L705.67 538.95" stroke="#132e65" stroke-width="1.5"></path><path d="M705.67 538.95L844.77 506.04" stroke="#132e65" stroke-width="1.5"></path><path d="M705.67 538.95L644.25 687.05" stroke="#132e65" stroke-width="1.5"></path><path d="M705.67 538.95L664.73 357.04" stroke="#132e65" stroke-width="1.5"></path><path d="M705.67 538.95L820.21 385.72" stroke="#132e65" stroke-width="1.5"></path><path d="M644.25 687.05L644.25 687.05" stroke="#132e65" stroke-width="1.5"></path><path d="M644.25 687.05L844.77 506.04" stroke="#132e65" stroke-width="1.5"></path><path d="M644.25 687.05L376.36 638.48" stroke="#132e65" stroke-width="1.5"></path><path d="M811.66 224.45L811.66 224.45" stroke="#132e65" stroke-width="1.5"></path><path d="M811.66 224.45L820.21 385.72" stroke="#132e65" stroke-width="1.5"></path><path d="M811.66 224.45L994.91 238.95" stroke="#132e65" stroke-width="1.5"></path><path d="M820.21 385.72L820.21 385.72" stroke="#132e65" stroke-width="1.5"></path><path d="M820.21 385.72L844.77 506.04" stroke="#132e65" stroke-width="1.5"></path><path d="M820.21 385.72L972.55 393.39" stroke="#132e65" stroke-width="1.5"></path><path d="M820.21 385.72L947.16 489.26" stroke="#132e65" stroke-width="1.5"></path><path d="M844.77 506.04L844.77 506.04" stroke="#132e65" stroke-width="1.5"></path><path d="M844.77 506.04L947.16 489.26" stroke="#132e65" stroke-width="1.5"></path><path d="M844.77 506.04L972.55 393.39" stroke="#132e65" stroke-width="1.5"></path><path d="M844.77 506.04L943.05 680.44" stroke="#132e65" stroke-width="1.5"></path><path d="M949.1 -74.06L949.1 -74.06" stroke="#132e65" stroke-width="1.5"></path><path d="M949.1 -74.06L1002.23 75.17" stroke="#132e65" stroke-width="1.5"></path><path d="M949.1 -74.06L1123.15 -87.56" stroke="#132e65" stroke-width="1.5"></path><path d="M1002.23 75.17L1002.23 75.17" stroke="#132e65" stroke-width="1.5"></path><path d="M1002.23 75.17L1148.41 83.88" stroke="#132e65" stroke-width="1.5"></path><path d="M1002.23 75.17L994.91 238.95" stroke="#132e65" stroke-width="1.5"></path><path d="M1002.23 75.17L1123.15 -87.56" stroke="#132e65" stroke-width="1.5"></path><path d="M994.91 238.95L994.91 238.95" stroke="#132e65" stroke-width="1.5"></path><path d="M994.91 238.95L1126.58 257.41" stroke="#132e65" stroke-width="1.5"></path><path d="M994.91 238.95L972.55 393.39" stroke="#132e65" stroke-width="1.5"></path><path d="M972.55 393.39L972.55 393.39" stroke="#132e65" stroke-width="1.5"></path><path d="M972.55 393.39L947.16 489.26" stroke="#132e65" stroke-width="1.5"></path><path d="M972.55 393.39L1118.71 381.43" stroke="#132e65" stroke-width="1.5"></path><path d="M947.16 489.26L947.16 489.26" stroke="#132e65" stroke-width="1.5"></path><path d="M947.16 489.26L943.05 680.44" stroke="#132e65" stroke-width="1.5"></path><path d="M947.16 489.26L1118.71 381.43" stroke="#132e65" stroke-width="1.5"></path><path d="M943.05 680.44L943.05 680.44" stroke="#132e65" stroke-width="1.5"></path><path d="M1123.15 -87.56L1123.15 -87.56" stroke="#132e65" stroke-width="1.5"></path><path d="M1123.15 -87.56L1279.91 -70.32" stroke="#132e65" stroke-width="1.5"></path><path d="M1123.15 -87.56L1148.41 83.88" stroke="#132e65" stroke-width="1.5"></path><path d="M1148.41 83.88L1148.41 83.88" stroke="#132e65" stroke-width="1.5"></path><path d="M1148.41 83.88L1273.26 101.74" stroke="#132e65" stroke-width="1.5"></path><path d="M1126.58 257.41L1126.58 257.41" stroke="#132e65" stroke-width="1.5"></path><path d="M1126.58 257.41L1248.33 253.54" stroke="#132e65" stroke-width="1.5"></path><path d="M1126.58 257.41L1118.71 381.43" stroke="#132e65" stroke-width="1.5"></path><path d="M1118.71 381.43L1118.71 381.43" stroke="#132e65" stroke-width="1.5"></path><path d="M1118.71 381.43L1149.82 506.58" stroke="#132e65" stroke-width="1.5"></path><path d="M1118.71 381.43L1254.97 412.15" stroke="#132e65" stroke-width="1.5"></path><path d="M1118.71 381.43L1248.33 253.54" stroke="#132e65" stroke-width="1.5"></path><path d="M1149.82 506.58L1149.82 506.58" stroke="#132e65" stroke-width="1.5"></path><path d="M1149.82 506.58L1282.93 510.74" stroke="#132e65" stroke-width="1.5"></path><path d="M1149.82 506.58L1254.97 412.15" stroke="#132e65" stroke-width="1.5"></path><path d="M1149.82 506.58L1254.03 660.39" stroke="#132e65" stroke-width="1.5"></path><path d="M1149.82 506.58L1147.58 693.25" stroke="#132e65" stroke-width="1.5"></path><path d="M1149.82 506.58L947.16 489.26" stroke="#132e65" stroke-width="1.5"></path><path d="M1147.58 693.25L1147.58 693.25" stroke="#132e65" stroke-width="1.5"></path><path d="M1147.58 693.25L1254.03 660.39" stroke="#132e65" stroke-width="1.5"></path><path d="M1147.58 693.25L943.05 680.44" stroke="#132e65" stroke-width="1.5"></path><path d="M1147.58 693.25L1282.93 510.74" stroke="#132e65" stroke-width="1.5"></path><path d="M1279.91 -70.32L1279.91 -70.32" stroke="#132e65" stroke-width="1.5"></path><path d="M1279.91 -70.32L1446.17 -75.17" stroke="#132e65" stroke-width="1.5"></path><path d="M1279.91 -70.32L1273.26 101.74" stroke="#132e65" stroke-width="1.5"></path><path d="M1279.91 -70.32L1148.41 83.88" stroke="#132e65" stroke-width="1.5"></path><path d="M1279.91 -70.32L1558.94 -70.4" stroke="#132e65" stroke-width="1.5"></path><path d="M1279.91 -70.32L1002.23 75.17" stroke="#132e65" stroke-width="1.5"></path><path d="M1273.26 101.74L1273.26 101.74" stroke="#132e65" stroke-width="1.5"></path><path d="M1273.26 101.74L1248.33 253.54" stroke="#132e65" stroke-width="1.5"></path><path d="M1248.33 253.54L1248.33 253.54" stroke="#132e65" stroke-width="1.5"></path><path d="M1248.33 253.54L1254.97 412.15" stroke="#132e65" stroke-width="1.5"></path><path d="M1248.33 253.54L1426.7 214.7" stroke="#132e65" stroke-width="1.5"></path><path d="M1248.33 253.54L1148.41 83.88" stroke="#132e65" stroke-width="1.5"></path><path d="M1254.97 412.15L1254.97 412.15" stroke="#132e65" stroke-width="1.5"></path><path d="M1254.97 412.15L1282.93 510.74" stroke="#132e65" stroke-width="1.5"></path><path d="M1282.93 510.74L1282.93 510.74" stroke="#132e65" stroke-width="1.5"></path><path d="M1282.93 510.74L1404.08 526.12" stroke="#132e65" stroke-width="1.5"></path><path d="M1254.03 660.39L1254.03 660.39" stroke="#132e65" stroke-width="1.5"></path><path d="M1254.03 660.39L1282.93 510.74" stroke="#132e65" stroke-width="1.5"></path><path d="M1254.03 660.39L1421.99 655.85" stroke="#132e65" stroke-width="1.5"></path><path d="M1446.17 -75.17L1446.17 -75.17" stroke="#132e65" stroke-width="1.5"></path><path d="M1446.17 -75.17L1558.94 -70.4" stroke="#132e65" stroke-width="1.5"></path><path d="M1446.17 -75.17L1273.26 101.74" stroke="#132e65" stroke-width="1.5"></path><path d="M1446.17 -75.17L1426.7 214.7" stroke="#132e65" stroke-width="1.5"></path><path d="M1446.17 -75.17L1123.15 -87.56" stroke="#132e65" stroke-width="1.5"></path><path d="M1426.7 214.7L1426.7 214.7" stroke="#132e65" stroke-width="1.5"></path><path d="M1426.7 214.7L1408 383.62" stroke="#132e65" stroke-width="1.5"></path><path d="M1426.7 214.7L1599.58 228.99" stroke="#132e65" stroke-width="1.5"></path><path d="M1426.7 214.7L1273.26 101.74" stroke="#132e65" stroke-width="1.5"></path><path d="M1426.7 214.7L1605.65 386.68" stroke="#132e65" stroke-width="1.5"></path><path d="M1426.7 214.7L1254.97 412.15" stroke="#132e65" stroke-width="1.5"></path><path d="M1408 383.62L1408 383.62" stroke="#132e65" stroke-width="1.5"></path><path d="M1408 383.62L1404.08 526.12" stroke="#132e65" stroke-width="1.5"></path><path d="M1408 383.62L1254.97 412.15" stroke="#132e65" stroke-width="1.5"></path><path d="M1408 383.62L1282.93 510.74" stroke="#132e65" stroke-width="1.5"></path><path d="M1408 383.62L1605.65 386.68" stroke="#132e65" stroke-width="1.5"></path><path d="M1404.08 526.12L1404.08 526.12" stroke="#132e65" stroke-width="1.5"></path><path d="M1404.08 526.12L1421.99 655.85" stroke="#132e65" stroke-width="1.5"></path><path d="M1404.08 526.12L1254.97 412.15" stroke="#132e65" stroke-width="1.5"></path><path d="M1404.08 526.12L1254.03 660.39" stroke="#132e65" stroke-width="1.5"></path><path d="M1421.99 655.85L1421.99 655.85" stroke="#132e65" stroke-width="1.5"></path><path d="M1421.99 655.85L1567.27 701.95" stroke="#132e65" stroke-width="1.5"></path><path d="M1421.99 655.85L1282.93 510.74" stroke="#132e65" stroke-width="1.5"></path><path d="M1421.99 655.85L1408 383.62" stroke="#132e65" stroke-width="1.5"></path><path d="M1421.99 655.85L1147.58 693.25" stroke="#132e65" stroke-width="1.5"></path><path d="M1558.94 -70.4L1558.94 -70.4" stroke="#132e65" stroke-width="1.5"></path><path d="M1558.94 -70.4L1599.58 228.99" stroke="#132e65" stroke-width="1.5"></path><path d="M1558.94 -70.4L1426.7 214.7" stroke="#132e65" stroke-width="1.5"></path><path d="M1558.94 -70.4L1273.26 101.74" stroke="#132e65" stroke-width="1.5"></path><path d="M1558.94 -70.4L1123.15 -87.56" stroke="#132e65" stroke-width="1.5"></path><path d="M1599.58 228.99L1599.58 228.99" stroke="#132e65" stroke-width="1.5"></path><path d="M1599.58 228.99L1605.65 386.68" stroke="#132e65" stroke-width="1.5"></path><path d="M1599.58 228.99L1408 383.62" stroke="#132e65" stroke-width="1.5"></path><path d="M1605.65 386.68L1605.65 386.68" stroke="#132e65" stroke-width="1.5"></path><path d="M1605.65 386.68L1404.08 526.12" stroke="#132e65" stroke-width="1.5"></path><path d="M1567.27 701.95L1567.27 701.95" stroke="#132e65" stroke-width="1.5"></path><path d="M1567.27 701.95L1404.08 526.12" stroke="#132e65" stroke-width="1.5"></path><path d="M1567.27 701.95L1254.03 660.39" stroke="#132e65" stroke-width="1.5"></path><circle r="5" cx="-108.32" cy="402.75" fill="#132e65"></circle><circle r="5" cx="-81.88" cy="500.61" fill="#132e65"></circle><circle r="5" cx="-95.91" cy="684.73" fill="#132e65"></circle><circle r="5" cx="102.28" cy="388.52" fill="#132e65"></circle><circle r="5" cx="40.01" cy="535.59" fill="#132e65"></circle><circle r="5" cx="102.12" cy="699.49" fill="#132e65"></circle><circle r="5" cx="243.61" cy="394.07" fill="#132e65"></circle><circle r="5" cx="241.48" cy="514.13" fill="#132e65"></circle><circle r="5" cx="205.06" cy="652.45" fill="#132e65"></circle><circle r="5" cx="382.52" cy="380.65" fill="#132e65"></circle><circle r="5" cx="367.75" cy="502.23" fill="#132e65"></circle><circle r="5" cx="376.36" cy="638.48" fill="#132e65"></circle><circle r="5" cx="555.71" cy="391.22" fill="#132e65"></circle><circle r="5" cx="540.05" cy="527.51" fill="#132e65"></circle><circle r="5" cx="514.75" cy="682.65" fill="#132e65"></circle><circle r="5" cx="652.76" cy="242.54" fill="#132e65"></circle><circle r="5" cx="664.73" cy="357.04" fill="#132e65"></circle><circle r="5" cx="705.67" cy="538.95" fill="#132e65"></circle><circle r="5" cx="644.25" cy="687.05" fill="#132e65"></circle><circle r="5" cx="811.66" cy="224.45" fill="#132e65"></circle><circle r="5" cx="820.21" cy="385.72" fill="#132e65"></circle><circle r="5" cx="844.77" cy="506.04" fill="#132e65"></circle><circle r="5" cx="949.1" cy="-74.06" fill="#132e65"></circle><circle r="5" cx="1002.23" cy="75.17" fill="#132e65"></circle><circle r="5" cx="994.91" cy="238.95" fill="#132e65"></circle><circle r="5" cx="972.55" cy="393.39" fill="#132e65"></circle><circle r="5" cx="947.16" cy="489.26" fill="#132e65"></circle><circle r="5" cx="943.05" cy="680.44" fill="#132e65"></circle><circle r="5" cx="1123.15" cy="-87.56" fill="#132e65"></circle><circle r="5" cx="1148.41" cy="83.88" fill="#132e65"></circle><circle r="5" cx="1126.58" cy="257.41" fill="#132e65"></circle><circle r="5" cx="1118.71" cy="381.43" fill="#132e65"></circle><circle r="5" cx="1149.82" cy="506.58" fill="#132e65"></circle><circle r="5" cx="1147.58" cy="693.25" fill="#132e65"></circle><circle r="5" cx="1279.91" cy="-70.32" fill="#132e65"></circle><circle r="5" cx="1273.26" cy="101.74" fill="#132e65"></circle><circle r="5" cx="1248.33" cy="253.54" fill="#132e65"></circle><circle r="5" cx="1254.97" cy="412.15" fill="#132e65"></circle><circle r="5" cx="1282.93" cy="510.74" fill="#132e65"></circle><circle r="5" cx="1254.03" cy="660.39" fill="#132e65"></circle><circle r="5" cx="1446.17" cy="-75.17" fill="#132e65"></circle><circle r="5" cx="1426.7" cy="214.7" fill="#132e65"></circle><circle r="5" cx="1408" cy="383.62" fill="#132e65"></circle><circle r="5" cx="1404.08" cy="526.12" fill="#132e65"></circle><circle r="5" cx="1421.99" cy="655.85" fill="#132e65"></circle><circle r="5" cx="1558.94" cy="-70.4" fill="#132e65"></circle><circle r="5" cx="1599.58" cy="228.99" fill="#132e65"></circle><circle r="5" cx="1605.65" cy="386.68" fill="#132e65"></circle><circle r="5" cx="1567.27" cy="701.95" fill="#132e65"></circle><path d="M112.37 557.02L112.37 557.02" stroke="hsl(228.5, 77.2%, 51.5%)" stroke-width="1.5"></path><path d="M112.37 557.02L208.64 527.34" stroke="hsl(228.5, 77.2%, 51.5%)" stroke-width="1.5"></path><path d="M112.37 557.02L214.5 658.17" stroke="hsl(228.5, 77.2%, 51.5%)" stroke-width="1.5"></path><path d="M710.8 705.1L710.8 705.1" stroke="hsl(228.5, 77.2%, 51.5%)" stroke-width="1.5"></path><path d="M710.8 705.1L793.63 657.03" stroke="hsl(228.5, 77.2%, 51.5%)" stroke-width="1.5"></path><path d="M710.8 705.1L815.88 561.28" stroke="hsl(228.5, 77.2%, 51.5%)" stroke-width="1.5"></path><path d="M710.8 705.1L641.2 539.25" stroke="hsl(228.5, 77.2%, 51.5%)" stroke-width="1.5"></path><path d="M710.8 705.1L523.91 674.27" stroke="hsl(228.5, 77.2%, 51.5%)" stroke-width="1.5"></path><path d="M1306.63 219.75L1306.63 219.75" stroke="hsl(228.5, 77.2%, 51.5%)" stroke-width="1.5"></path><path d="M1306.63 219.75L1389 215.08" stroke="hsl(228.5, 77.2%, 51.5%)" stroke-width="1.5"></path><path d="M1306.63 219.75L1247.24 95.61" stroke="hsl(228.5, 77.2%, 51.5%)" stroke-width="1.5"></path><path d="M1306.63 219.75L1299.42 358.88" stroke="hsl(228.5, 77.2%, 51.5%)" stroke-width="1.5"></path><path d="M1299.42 358.88L1299.42 358.88" stroke="hsl(228.5, 77.2%, 51.5%)" stroke-width="1.5"></path><path d="M1299.42 358.88L1438.25 378.49" stroke="hsl(228.5, 77.2%, 51.5%)" stroke-width="1.5"></path><path d="M1263.64 703.68L1263.64 703.68" stroke="hsl(228.5, 77.2%, 51.5%)" stroke-width="1.5"></path><path d="M1263.64 703.68L1092.23 697.63" stroke="hsl(228.5, 77.2%, 51.5%)" stroke-width="1.5"></path><path d="M1263.64 703.68L1306.33 531.39" stroke="hsl(228.5, 77.2%, 51.5%)" stroke-width="1.5"></path><path d="M1263.64 703.68L1456 660.96" stroke="hsl(228.5, 77.2%, 51.5%)" stroke-width="1.5"></path><path d="M1456 660.96L1456 660.96" stroke="hsl(228.5, 77.2%, 51.5%)" stroke-width="1.5"></path><path d="M1456 660.96L1572.72 709.23" stroke="hsl(228.5, 77.2%, 51.5%)" stroke-width="1.5"></path><path d="M1456 660.96L1393.07 545.85" stroke="hsl(228.5, 77.2%, 51.5%)" stroke-width="1.5"></path><path d="M1456 660.96L1599.76 533.7" stroke="hsl(228.5, 77.2%, 51.5%)" stroke-width="1.5"></path><path d="M1456 660.96L1306.33 531.39" stroke="hsl(228.5, 77.2%, 51.5%)" stroke-width="1.5"></path><path d="M1456 660.96L1438.25 378.49" stroke="hsl(228.5, 77.2%, 51.5%)" stroke-width="1.5"></path><path d="M1581.17 -66.48L1581.17 -66.48" stroke="hsl(228.5, 77.2%, 51.5%)" stroke-width="1.5"></path><path d="M1581.17 -66.48L1444.31 78.59" stroke="hsl(228.5, 77.2%, 51.5%)" stroke-width="1.5"></path><path d="M1581.17 -66.48L1558.1 195.17" stroke="hsl(228.5, 77.2%, 51.5%)" stroke-width="1.5"></path><path d="M1581.17 -66.48L1265.25 -56.41" stroke="hsl(228.5, 77.2%, 51.5%)" stroke-width="1.5"></path><path d="M1581.17 -66.48L1389 215.08" stroke="hsl(228.5, 77.2%, 51.5%)" stroke-width="1.5"></path><path d="M1581.17 -66.48L1247.24 95.61" stroke="hsl(228.5, 77.2%, 51.5%)" stroke-width="1.5"></path><path d="M1581.17 -66.48L1306.63 219.75" stroke="hsl(228.5, 77.2%, 51.5%)" stroke-width="1.5"></path><path d="M-99.14 549.05L-99.14 549.05" stroke="hsl(228.5, 77.2%, 51.5%)" stroke-width="1.5"></path><path d="M-99.14 549.05L-82.43 660.76" stroke="hsl(228.5, 77.2%, 51.5%)" stroke-width="1.5"></path><path d="M-99.14 549.05L112.37 557.02" stroke="hsl(228.5, 77.2%, 51.5%)" stroke-width="1.5"></path><path d="M-99.14 549.05L99.12 710.22" stroke="hsl(228.5, 77.2%, 51.5%)" stroke-width="1.5"></path><path d="M-82.43 660.76L-82.43 660.76" stroke="hsl(228.5, 77.2%, 51.5%)" stroke-width="1.5"></path><path d="M-82.43 660.76L99.12 710.22" stroke="hsl(228.5, 77.2%, 51.5%)" stroke-width="1.5"></path><path d="M-82.43 660.76L112.37 557.02" stroke="hsl(228.5, 77.2%, 51.5%)" stroke-width="1.5"></path><path d="M-82.43 660.76L214.5 658.17" stroke="hsl(228.5, 77.2%, 51.5%)" stroke-width="1.5"></path><path d="M-82.43 660.76L208.64 527.34" stroke="hsl(228.5, 77.2%, 51.5%)" stroke-width="1.5"></path><path d="M-82.43 660.76L392.22 656.27" stroke="hsl(228.5, 77.2%, 51.5%)" stroke-width="1.5"></path><path d="M99.12 710.22L99.12 710.22" stroke="hsl(228.5, 77.2%, 51.5%)" stroke-width="1.5"></path><path d="M99.12 710.22L214.5 658.17" stroke="hsl(228.5, 77.2%, 51.5%)" stroke-width="1.5"></path><path d="M99.12 710.22L112.37 557.02" stroke="hsl(228.5, 77.2%, 51.5%)" stroke-width="1.5"></path><path d="M208.64 527.34L208.64 527.34" stroke="hsl(228.5, 77.2%, 51.5%)" stroke-width="1.5"></path><path d="M208.64 527.34L214.5 658.17" stroke="hsl(228.5, 77.2%, 51.5%)" stroke-width="1.5"></path><path d="M208.64 527.34L367.58 509.1" stroke="hsl(228.5, 77.2%, 51.5%)" stroke-width="1.5"></path><path d="M208.64 527.34L99.12 710.22" stroke="hsl(228.5, 77.2%, 51.5%)" stroke-width="1.5"></path><path d="M208.64 527.34L392.22 656.27" stroke="hsl(228.5, 77.2%, 51.5%)" stroke-width="1.5"></path><path d="M214.5 658.17L214.5 658.17" stroke="hsl(228.5, 77.2%, 51.5%)" stroke-width="1.5"></path><path d="M367.58 509.1L367.58 509.1" stroke="hsl(228.5, 77.2%, 51.5%)" stroke-width="1.5"></path><path d="M367.58 509.1L488.1 505.94" stroke="hsl(228.5, 77.2%, 51.5%)" stroke-width="1.5"></path><path d="M367.58 509.1L392.22 656.27" stroke="hsl(228.5, 77.2%, 51.5%)" stroke-width="1.5"></path><path d="M367.58 509.1L214.5 658.17" stroke="hsl(228.5, 77.2%, 51.5%)" stroke-width="1.5"></path><path d="M392.22 656.27L392.22 656.27" stroke="hsl(228.5, 77.2%, 51.5%)" stroke-width="1.5"></path><path d="M392.22 656.27L523.91 674.27" stroke="hsl(228.5, 77.2%, 51.5%)" stroke-width="1.5"></path><path d="M392.22 656.27L214.5 658.17" stroke="hsl(228.5, 77.2%, 51.5%)" stroke-width="1.5"></path><path d="M392.22 656.27L488.1 505.94" stroke="hsl(228.5, 77.2%, 51.5%)" stroke-width="1.5"></path><path d="M392.22 656.27L641.2 539.25" stroke="hsl(228.5, 77.2%, 51.5%)" stroke-width="1.5"></path><path d="M488.1 505.94L488.1 505.94" stroke="hsl(228.5, 77.2%, 51.5%)" stroke-width="1.5"></path><path d="M488.1 505.94L641.2 539.25" stroke="hsl(228.5, 77.2%, 51.5%)" stroke-width="1.5"></path><path d="M488.1 505.94L523.91 674.27" stroke="hsl(228.5, 77.2%, 51.5%)" stroke-width="1.5"></path><path d="M523.91 674.27L523.91 674.27" stroke="hsl(228.5, 77.2%, 51.5%)" stroke-width="1.5"></path><path d="M523.91 674.27L641.2 539.25" stroke="hsl(228.5, 77.2%, 51.5%)" stroke-width="1.5"></path><path d="M523.91 674.27L367.58 509.1" stroke="hsl(228.5, 77.2%, 51.5%)" stroke-width="1.5"></path><path d="M523.91 674.27L793.63 657.03" stroke="hsl(228.5, 77.2%, 51.5%)" stroke-width="1.5"></path><path d="M665.67 407.77L665.67 407.77" stroke="hsl(228.5, 77.2%, 51.5%)" stroke-width="1.5"></path><path d="M665.67 407.77L641.2 539.25" stroke="hsl(228.5, 77.2%, 51.5%)" stroke-width="1.5"></path><path d="M665.67 407.77L830.37 341.51" stroke="hsl(228.5, 77.2%, 51.5%)" stroke-width="1.5"></path><path d="M665.67 407.77L488.1 505.94" stroke="hsl(228.5, 77.2%, 51.5%)" stroke-width="1.5"></path><path d="M641.2 539.25L641.2 539.25" stroke="hsl(228.5, 77.2%, 51.5%)" stroke-width="1.5"></path><path d="M641.2 539.25L815.88 561.28" stroke="hsl(228.5, 77.2%, 51.5%)" stroke-width="1.5"></path><path d="M641.2 539.25L793.63 657.03" stroke="hsl(228.5, 77.2%, 51.5%)" stroke-width="1.5"></path><path d="M830.37 341.51L830.37 341.51" stroke="hsl(228.5, 77.2%, 51.5%)" stroke-width="1.5"></path><path d="M830.37 341.51L815.88 561.28" stroke="hsl(228.5, 77.2%, 51.5%)" stroke-width="1.5"></path><path d="M830.37 341.51L981.56 545.74" stroke="hsl(228.5, 77.2%, 51.5%)" stroke-width="1.5"></path><path d="M830.37 341.51L641.2 539.25" stroke="hsl(228.5, 77.2%, 51.5%)" stroke-width="1.5"></path><path d="M830.37 341.51L1099.18 201.86" stroke="hsl(228.5, 77.2%, 51.5%)" stroke-width="1.5"></path><path d="M815.88 561.28L815.88 561.28" stroke="hsl(228.5, 77.2%, 51.5%)" stroke-width="1.5"></path><path d="M815.88 561.28L793.63 657.03" stroke="hsl(228.5, 77.2%, 51.5%)" stroke-width="1.5"></path><path d="M815.88 561.28L981.56 545.74" stroke="hsl(228.5, 77.2%, 51.5%)" stroke-width="1.5"></path><path d="M793.63 657.03L793.63 657.03" stroke="hsl(228.5, 77.2%, 51.5%)" stroke-width="1.5"></path><path d="M981.56 545.74L981.56 545.74" stroke="hsl(228.5, 77.2%, 51.5%)" stroke-width="1.5"></path><path d="M981.56 545.74L1108.99 544.84" stroke="hsl(228.5, 77.2%, 51.5%)" stroke-width="1.5"></path><path d="M981.56 545.74L950.23 682.35" stroke="hsl(228.5, 77.2%, 51.5%)" stroke-width="1.5"></path><path d="M950.23 682.35L950.23 682.35" stroke="hsl(228.5, 77.2%, 51.5%)" stroke-width="1.5"></path><path d="M950.23 682.35L1092.23 697.63" stroke="hsl(228.5, 77.2%, 51.5%)" stroke-width="1.5"></path><path d="M950.23 682.35L793.63 657.03" stroke="hsl(228.5, 77.2%, 51.5%)" stroke-width="1.5"></path><path d="M1099.18 201.86L1099.18 201.86" stroke="hsl(228.5, 77.2%, 51.5%)" stroke-width="1.5"></path><path d="M1099.18 201.86L1158.46 339.75" stroke="hsl(228.5, 77.2%, 51.5%)" stroke-width="1.5"></path><path d="M1099.18 201.86L1247.24 95.61" stroke="hsl(228.5, 77.2%, 51.5%)" stroke-width="1.5"></path><path d="M1099.18 201.86L1306.63 219.75" stroke="hsl(228.5, 77.2%, 51.5%)" stroke-width="1.5"></path><path d="M1099.18 201.86L1299.42 358.88" stroke="hsl(228.5, 77.2%, 51.5%)" stroke-width="1.5"></path><path d="M1099.18 201.86L1389 215.08" stroke="hsl(228.5, 77.2%, 51.5%)" stroke-width="1.5"></path><path d="M1158.46 339.75L1158.46 339.75" stroke="hsl(228.5, 77.2%, 51.5%)" stroke-width="1.5"></path><path d="M1158.46 339.75L1299.42 358.88" stroke="hsl(228.5, 77.2%, 51.5%)" stroke-width="1.5"></path><path d="M1158.46 339.75L1306.63 219.75" stroke="hsl(228.5, 77.2%, 51.5%)" stroke-width="1.5"></path><path d="M1108.99 544.84L1108.99 544.84" stroke="hsl(228.5, 77.2%, 51.5%)" stroke-width="1.5"></path><path d="M1108.99 544.84L1092.23 697.63" stroke="hsl(228.5, 77.2%, 51.5%)" stroke-width="1.5"></path><path d="M1108.99 544.84L1306.33 531.39" stroke="hsl(228.5, 77.2%, 51.5%)" stroke-width="1.5"></path><path d="M1108.99 544.84L950.23 682.35" stroke="hsl(228.5, 77.2%, 51.5%)" stroke-width="1.5"></path><path d="M1092.23 697.63L1092.23 697.63" stroke="hsl(228.5, 77.2%, 51.5%)" stroke-width="1.5"></path><path d="M1265.25 -56.41L1265.25 -56.41" stroke="hsl(228.5, 77.2%, 51.5%)" stroke-width="1.5"></path><path d="M1265.25 -56.41L1247.24 95.61" stroke="hsl(228.5, 77.2%, 51.5%)" stroke-width="1.5"></path><path d="M1265.25 -56.41L1444.31 78.59" stroke="hsl(228.5, 77.2%, 51.5%)" stroke-width="1.5"></path><path d="M1265.25 -56.41L1306.63 219.75" stroke="hsl(228.5, 77.2%, 51.5%)" stroke-width="1.5"></path><path d="M1265.25 -56.41L1389 215.08" stroke="hsl(228.5, 77.2%, 51.5%)" stroke-width="1.5"></path><path d="M1265.25 -56.41L1099.18 201.86" stroke="hsl(228.5, 77.2%, 51.5%)" stroke-width="1.5"></path><path d="M1247.24 95.61L1247.24 95.61" stroke="hsl(228.5, 77.2%, 51.5%)" stroke-width="1.5"></path><path d="M1306.33 531.39L1306.33 531.39" stroke="hsl(228.5, 77.2%, 51.5%)" stroke-width="1.5"></path><path d="M1306.33 531.39L1393.07 545.85" stroke="hsl(228.5, 77.2%, 51.5%)" stroke-width="1.5"></path><path d="M1306.33 531.39L1299.42 358.88" stroke="hsl(228.5, 77.2%, 51.5%)" stroke-width="1.5"></path><path d="M1444.31 78.59L1444.31 78.59" stroke="hsl(228.5, 77.2%, 51.5%)" stroke-width="1.5"></path><path d="M1444.31 78.59L1389 215.08" stroke="hsl(228.5, 77.2%, 51.5%)" stroke-width="1.5"></path><path d="M1444.31 78.59L1558.1 195.17" stroke="hsl(228.5, 77.2%, 51.5%)" stroke-width="1.5"></path><path d="M1444.31 78.59L1306.63 219.75" stroke="hsl(228.5, 77.2%, 51.5%)" stroke-width="1.5"></path><path d="M1444.31 78.59L1247.24 95.61" stroke="hsl(228.5, 77.2%, 51.5%)" stroke-width="1.5"></path><path d="M1389 215.08L1389 215.08" stroke="hsl(228.5, 77.2%, 51.5%)" stroke-width="1.5"></path><path d="M1389 215.08L1299.42 358.88" stroke="hsl(228.5, 77.2%, 51.5%)" stroke-width="1.5"></path><path d="M1389 215.08L1558.1 195.17" stroke="hsl(228.5, 77.2%, 51.5%)" stroke-width="1.5"></path><path d="M1389 215.08L1438.25 378.49" stroke="hsl(228.5, 77.2%, 51.5%)" stroke-width="1.5"></path><path d="M1389 215.08L1247.24 95.61" stroke="hsl(228.5, 77.2%, 51.5%)" stroke-width="1.5"></path><path d="M1438.25 378.49L1438.25 378.49" stroke="hsl(228.5, 77.2%, 51.5%)" stroke-width="1.5"></path><path d="M1438.25 378.49L1609.4 382.96" stroke="hsl(228.5, 77.2%, 51.5%)" stroke-width="1.5"></path><path d="M1438.25 378.49L1393.07 545.85" stroke="hsl(228.5, 77.2%, 51.5%)" stroke-width="1.5"></path><path d="M1393.07 545.85L1393.07 545.85" stroke="hsl(228.5, 77.2%, 51.5%)" stroke-width="1.5"></path><path d="M1558.1 195.17L1558.1 195.17" stroke="hsl(228.5, 77.2%, 51.5%)" stroke-width="1.5"></path><path d="M1609.4 382.96L1609.4 382.96" stroke="hsl(228.5, 77.2%, 51.5%)" stroke-width="1.5"></path><path d="M1609.4 382.96L1599.76 533.7" stroke="hsl(228.5, 77.2%, 51.5%)" stroke-width="1.5"></path><path d="M1609.4 382.96L1558.1 195.17" stroke="hsl(228.5, 77.2%, 51.5%)" stroke-width="1.5"></path><path d="M1609.4 382.96L1393.07 545.85" stroke="hsl(228.5, 77.2%, 51.5%)" stroke-width="1.5"></path><path d="M1609.4 382.96L1389 215.08" stroke="hsl(228.5, 77.2%, 51.5%)" stroke-width="1.5"></path><path d="M1609.4 382.96L1299.42 358.88" stroke="hsl(228.5, 77.2%, 51.5%)" stroke-width="1.5"></path><path d="M1599.76 533.7L1599.76 533.7" stroke="hsl(228.5, 77.2%, 51.5%)" stroke-width="1.5"></path><path d="M1599.76 533.7L1572.72 709.23" stroke="hsl(228.5, 77.2%, 51.5%)" stroke-width="1.5"></path><path d="M1599.76 533.7L1393.07 545.85" stroke="hsl(228.5, 77.2%, 51.5%)" stroke-width="1.5"></path><path d="M1599.76 533.7L1438.25 378.49" stroke="hsl(228.5, 77.2%, 51.5%)" stroke-width="1.5"></path><path d="M1572.72 709.23L1572.72 709.23" stroke="hsl(228.5, 77.2%, 51.5%)" stroke-width="1.5"></path><path d="M1572.72 709.23L1393.07 545.85" stroke="hsl(228.5, 77.2%, 51.5%)" stroke-width="1.5"></path><path d="M1572.72 709.23L1263.64 703.68" stroke="hsl(228.5, 77.2%, 51.5%)" stroke-width="1.5"></path><circle r="25" cx="112.37" cy="557.02" fill="url(&quot;#SvgjsRadialGradient4088&quot;)"></circle><circle r="25" cx="710.8" cy="705.1" fill="url(&quot;#SvgjsRadialGradient4088&quot;)"></circle><circle r="25" cx="1306.63" cy="219.75" fill="url(&quot;#SvgjsRadialGradient4088&quot;)"></circle><circle r="25" cx="1299.42" cy="358.88" fill="url(&quot;#SvgjsRadialGradient4088&quot;)"></circle><circle r="25" cx="1263.64" cy="703.68" fill="url(&quot;#SvgjsRadialGradient4088&quot;)"></circle><circle r="25" cx="1456" cy="660.96" fill="url(&quot;#SvgjsRadialGradient4088&quot;)"></circle><circle r="25" cx="1581.17" cy="-66.48" fill="url(&quot;#SvgjsRadialGradient4088&quot;)"></circle><circle r="5" cx="-99.14" cy="549.05" fill="#8b9ad9"></circle><circle r="5" cx="-82.43" cy="660.76" fill="#8b9ad9"></circle><circle r="5" cx="99.12" cy="710.22" fill="#8b9ad9"></circle><circle r="5" cx="208.64" cy="527.34" fill="#8b9ad9"></circle><circle r="5" cx="214.5" cy="658.17" fill="#8b9ad9"></circle><circle r="5" cx="367.58" cy="509.1" fill="#8b9ad9"></circle><circle r="5" cx="392.22" cy="656.27" fill="#8b9ad9"></circle><circle r="5" cx="488.1" cy="505.94" fill="#8b9ad9"></circle><circle r="5" cx="523.91" cy="674.27" fill="#8b9ad9"></circle><circle r="5" cx="665.67" cy="407.77" fill="#8b9ad9"></circle><circle r="5" cx="641.2" cy="539.25" fill="#8b9ad9"></circle><circle r="5" cx="830.37" cy="341.51" fill="#8b9ad9"></circle><circle r="5" cx="815.88" cy="561.28" fill="#8b9ad9"></circle><circle r="5" cx="793.63" cy="657.03" fill="#8b9ad9"></circle><circle r="5" cx="981.56" cy="545.74" fill="#8b9ad9"></circle><circle r="5" cx="950.23" cy="682.35" fill="#8b9ad9"></circle><circle r="5" cx="1099.18" cy="201.86" fill="#8b9ad9"></circle><circle r="5" cx="1158.46" cy="339.75" fill="#8b9ad9"></circle><circle r="5" cx="1108.99" cy="544.84" fill="#8b9ad9"></circle><circle r="5" cx="1092.23" cy="697.63" fill="#8b9ad9"></circle><circle r="5" cx="1265.25" cy="-56.41" fill="#8b9ad9"></circle><circle r="5" cx="1247.24" cy="95.61" fill="#8b9ad9"></circle><circle r="5" cx="1306.33" cy="531.39" fill="#8b9ad9"></circle><circle r="5" cx="1444.31" cy="78.59" fill="#8b9ad9"></circle><circle r="5" cx="1389" cy="215.08" fill="#8b9ad9"></circle><circle r="5" cx="1438.25" cy="378.49" fill="#8b9ad9"></circle><circle r="5" cx="1393.07" cy="545.85" fill="#8b9ad9"></circle><circle r="5" cx="1558.1" cy="195.17" fill="#8b9ad9"></circle><circle r="5" cx="1609.4" cy="382.96" fill="#8b9ad9"></circle><circle r="5" cx="1599.76" cy="533.7" fill="#8b9ad9"></circle><circle r="5" cx="1572.72" cy="709.23" fill="#8b9ad9"></circle></g><defs><mask id="SvgjsMask4086"><rect width="1440" height="560" fill="#ffffff"></rect></mask><linearGradient x1="50%" y1="0%" x2="50%" y2="100%" gradientUnits="userSpaceOnUse" id="SvgjsLinearGradient4087"><stop stop-color="#0e2a47" offset="0"></stop><stop stop-color="rgba(141, 18, 187, 1)" offset="1"></stop></linearGradient><radialGradient id="SvgjsRadialGradient4088"><stop stop-color="#ffffff" offset="0.1"></stop><stop stop-color="#1735b3" offset="0.2"></stop><stop stop-color="rgba(23, 53, 179, 0)" offset="1"></stop></radialGradient></defs></svg>